<?xml version="1.0" encoding="UTF-8"?>
<svg width="74px" height="44px" viewBox="0 0 74 44" version="1.1" xmlns="http://www.w3.org/2000/svg" xmlns:xlink="http://www.w3.org/1999/xlink">
    <title>Group</title>
    <g id="Page-1" stroke="none" stroke-width="1" fill="none" fill-rule="evenodd">
        <g id="Screen-1" transform="translate(-82.000000, -329.000000)">
            <g id="Group" transform="translate(82.000000, 329.000000)">
                <path d="M22.766,43.07 C15.318,45.095 7.746,40.887 5.527,33.491 L0,13.628 L27.494,6.155 L32.783,26.082 C34.613,33.584 30.213,41.046 22.766,43.07" id="Fill-101" fill="#F3B04D"></path>
                <path d="M27.494,6.155 L17.197,8.954 L17.303,26.686 C17.471,33.146 20.993,38.667 26.193,41.629 C31.491,38.56 34.31,32.341 32.783,26.082 L27.494,6.155" id="Fill-102" fill="#D88B32"></path>
                <path d="M9.941,32.166 C11.421,37.096 16.561,39.981 21.557,38.623 C26.553,37.265 29.526,32.175 28.306,27.175 L9.941,32.166" id="Fill-103" fill="#FFFFFE"></path>
                <path d="M13.293,21.888 C13.391,22.249 13.178,22.621 12.817,22.719 L7.87,24.064 C7.509,24.162 7.137,23.949 7.039,23.588 C6.941,23.227 7.154,22.855 7.515,22.757 L12.462,21.413 C12.823,21.314 13.195,21.527 13.293,21.888" id="Fill-104" fill="#000105"></path>
                <path d="M4.269,19.692 C4.139,19.728 3.997,19.726 3.86,19.678 C3.499,19.551 3.31,19.157 3.436,18.797 C4.365,16.147 6.872,14.347 9.673,14.3179612 C10.055,14.314 10.368,14.62 10.3720388,15.002 C10.376,15.384 10.07,15.697 9.688,15.701 C7.466,15.724 5.478,17.152 4.741,19.254 C4.662,19.477 4.481,19.635 4.269,19.692" id="Fill-105" fill="#000105"></path>
                <path d="M20.217,20.006 C20.315,20.367 20.687,20.58 21.048,20.482 L25.995,19.137 C26.356,19.039 26.569,18.667 26.471,18.306 C26.373,17.945 26.001,17.732 25.64,17.83 L20.693,19.175 C20.332,19.273 20.119,19.645 20.217,20.006" id="Fill-106" fill="#000105"></path>
                <path d="M26.888,13.544 C26.676,13.602 26.439,13.558 26.259,13.405 C24.559,11.965 22.122,11.74 20.194,12.845 C19.862,13.035 19.44,12.92 19.25,12.589 C19.06,12.258 19.175,11.835 19.506,11.645 C21.938,10.253 25.01,10.535 27.153,12.35 C27.444,12.596 27.48,13.033 27.233,13.324 C27.139,13.435 27.018,13.509 26.888,13.544" id="Fill-107" fill="#000105"></path>
                <path d="M50.801,43.07 C58.248,45.095 65.821,40.887 68.039,33.491 L73.566,13.628 L46.072,6.155 L40.783,26.082 C38.953,33.584 43.353,41.046 50.801,43.07" id="Fill-108" fill="#F3B04D"></path>
                <path d="M46.072,6.155 L56.37,8.954 L56.264,26.686 C56.096,33.146 52.573,38.667 47.374,41.629 C42.076,38.56 39.256,32.341 40.783,26.082 L46.072,6.155" id="Fill-109" fill="#D88B32"></path>
                <path d="M63.625,32.166 C62.146,37.096 57.006,39.981 52.01,38.623 C47.013,37.265 44.041,32.175 45.261,27.175 L63.625,32.166" id="Fill-110" fill="#FFFFFE"></path>
                <path d="M60.273,21.888 C60.175,22.249 60.388,22.621 60.749,22.719 L65.696,24.064 C66.057,24.162 66.429,23.949 66.527,23.588 C66.625,23.227 66.412,22.855 66.052,22.757 L61.104,21.413 C60.744,21.314 60.371,21.527 60.273,21.888" id="Fill-111" fill="#000105"></path>
                <path d="M69.298,19.692 C69.428,19.728 69.57,19.726 69.707,19.678 C70.067,19.551 70.257,19.157 70.131,18.797 C69.202,16.147 66.695,14.347 63.893,14.3179612 C63.511,14.314 63.199,14.62 63.1949611,15.002 C63.191,15.384 63.496,15.697 63.879,15.701 C66.101,15.724 68.089,17.152 68.826,19.254 C68.904,19.477 69.085,19.635 69.298,19.692" id="Fill-112" fill="#000105"></path>
                <path d="M53.35,20.006 C53.252,20.367 52.88,20.58 52.519,20.482 L47.571,19.137 C47.211,19.039 46.998,18.667 47.096,18.306 C47.194,17.945 47.566,17.732 47.927,17.83 L52.874,19.175 C53.235,19.273 53.448,19.645 53.35,20.006" id="Fill-113" fill="#000105"></path>
                <path d="M46.679,13.544 C46.891,13.602 47.127,13.558 47.308,13.405 C49.008,11.965 51.445,11.74 53.373,12.845 C53.705,13.035 54.126,12.92 54.316,12.589 C54.506,12.258 54.392,11.835 54.06,11.645 C51.629,10.253 48.556,10.535 46.414,12.35 C46.123,12.596 46.087,13.033 46.333,13.324 C46.427,13.435 46.549,13.509 46.679,13.544" id="Fill-114" fill="#000105"></path>
                <path d="M36.798,43.114 C27.12,43.114 19.341,35.532 19.089,25.853 L18.934,0 L54.662,0 L54.507,25.853 C54.254,35.532 46.476,43.114 36.798,43.114" id="Fill-115" fill="#F3B04D"></path>
                <path d="M36.578,0 L18.934,0 L19.089,25.853 C19.339,35.458 27.003,42.994 36.578,43.109 L36.578,0" id="Fill-116" fill="#F6BD71"></path>
                <path d="M24.866,25.702 C25.034,32.154 30.305,37.335 36.798,37.335 C43.29,37.335 48.561,32.154 48.73,25.702 L24.866,25.702" id="Fill-117" fill="#FFFFFE"></path>
                <path d="M32.303,14.367 C32.303,14.836 31.922,15.216 31.454,15.216 L25.025,15.216 C24.556,15.216 24.176,14.836 24.176,14.367 C24.176,13.898 24.556,13.518 25.025,13.518 L31.454,13.518 C31.922,13.518 32.303,13.898 32.303,14.367" id="Fill-118" fill="#000105"></path>
                <path d="M22.105,8.742 C21.936,8.742 21.765,8.693 21.615,8.589 C21.22,8.318 21.12,7.778 21.392,7.384 C23.387,4.483 27.013,3.13 30.412,4.016 C30.876,4.137 31.153,4.611 31.033,5.074 C30.912,5.537 30.439,5.815 29.975,5.694 C27.279,4.991 24.403,6.065 22.82,8.366 C22.652,8.611 22.381,8.742 22.105,8.742" id="Fill-119" fill="#000105"></path>
                <path d="M41.3,14.367 C41.3,14.836 41.68,15.216 42.149,15.216 L48.577,15.216 C49.046,15.216 49.426,14.836 49.426,14.367 C49.426,13.898 49.046,13.518 48.577,13.518 L42.149,13.518 C41.68,13.518 41.3,13.898 41.3,14.367" id="Fill-120" fill="#000105"></path>
                <path d="M51.497,8.742 C51.221,8.742 50.95,8.611 50.782,8.366 C49.199,6.065 46.323,4.992 43.627,5.694 C43.163,5.815 42.691,5.537 42.57,5.074 C42.449,4.611 42.727,4.137 43.19,4.016 C46.59,3.132 50.215,4.484 52.21,7.384 C52.482,7.778 52.382,8.318 51.987,8.589 C51.837,8.693 51.666,8.742 51.497,8.742" id="Fill-121" fill="#000105"></path>
            </g>
        </g>
    </g>
</svg>