<?xml version="1.0" encoding="UTF-8"?>
<svg width="54px" height="51px" viewBox="0 0 54 51" version="1.1" xmlns="http://www.w3.org/2000/svg" xmlns:xlink="http://www.w3.org/1999/xlink">
    <title>Group 3</title>
    <g id="Page-1" stroke="none" stroke-width="1" fill="none" fill-rule="evenodd">
        <g id="Screen-1" transform="translate(-99.000000, -482.000000)">
            <g id="Group-3" transform="translate(99.000000, 482.000000)">
                <path d="M26.922,41.854 L22.543,37.87 L50.795,13.468 L53.096,0.307 L40.21,3.84 L18.585,34.27 L14.206,30.287 L12.519,32.141 L17.461,36.637 C17.291,36.715 17.127,36.825 16.981,36.969 L8.334,45.496 C7.331,46.486 7.009,47.815 7.667,48.414 L9.493,50.075 C10.151,50.674 11.444,50.227 12.335,49.135 L20.008,39.722 C20.137,39.563 20.231,39.389 20.292,39.212 L25.235,43.708 L26.922,41.854" id="Fill-174" fill="#406E7D"></path>
                <path d="M18.585,34.27 L14.206,30.287 L12.519,32.141 L17.461,36.637 C17.291,36.715 17.127,36.824 16.981,36.969 L8.334,45.496 C7.331,46.486 7.009,47.815 7.667,48.414 L9.493,50.075 C10.151,50.674 11.444,50.227 12.335,49.135 L20.008,39.722 C20.137,39.563 20.231,39.389 20.292,39.212 L25.235,43.708 L26.922,41.854 L18.585,34.27" id="Fill-175" fill="#49311C"></path>
                <polyline id="Fill-176" fill="#F3B04D" points="22.543 37.87 14.206 30.287 12.519 32.141 25.235 43.708 26.922 41.854 22.543 37.87"></polyline>
                <polyline id="Fill-177" fill="#78C8D2" points="20.797 35.569 19.693 34.565 40.864 4.774 51.449 1.872 20.797 35.569"></polyline>
                <path d="M34.635,24.766 C34.635,24.766 31.15,39.341 27.792,42.796 C25.445,43.392 19.191,43.938 17.568,43.938 C15.441,43.938 10.752,43.45 7.904,42.628 C3.438,39.341 0.435,24.766 0.435,24.766 L0.237,23.87 L17.496,12.255 L34.773,23.87 L34.635,24.766" id="Fill-178" fill="#7C4E26"></path>
                <path d="M34.655,17.491 C34.195,17.273 33.719,17.067 33.234,16.866 C32.251,9.787 26.728,3.294 17.963,3.294 L17.047,3.294 C8.282,3.294 2.759,9.787 1.776,16.866 C1.291,17.067 0.815,17.273 0.355,17.491 C0.123,18.628 -1.42108547e-14,19.806 -1.42108547e-14,21.012 C-1.42108547e-14,21.986 0.084,22.94 0.237,23.87 C2.966,22.846 5.782,22.375 8.614,21.764 C10.219,21.417 11.741,21.303 13.367,21.156 C15.032,21.006 21.982,21.189 22.01,21.189 C23.498,21.322 24.914,21.444 26.396,21.764 C29.228,22.375 32.044,22.846 34.773,23.87 C34.927,22.94 35.01,21.986 35.01,21.012 C35.01,19.806 34.888,18.628 34.655,17.491" id="Fill-179" fill="#F3B04D"></path>
                <path d="M33.97,24.534 C33.405,34.199 25.126,36.782 25.126,36.782 C25.126,36.782 24.703,42.448 24.026,50.65 C29.1,49.55 32.567,44.392 32.905,41.771 C33.183,39.618 34.259,28.626 34.635,24.766 C34.413,24.689 34.196,24.609 33.97,24.534" id="Fill-180" fill="#D88B32"></path>
                <path d="M0.435,24.766 C0.811,28.626 1.887,39.618 2.164,41.771 C2.503,44.392 5.97,49.55 11.043,50.649 C10.367,42.447 9.944,36.782 9.944,36.782 C9.944,36.782 1.665,34.199 1.099,24.534 C0.874,24.608 0.656,24.689 0.435,24.766" id="Fill-181" fill="#F3B04D"></path>
                <path d="M7.202,44.839 C6.424,40.746 5.347,36.877 3.671,33.175 C2.927,32.288 2.232,31.242 1.673,30.005 C2.124,34.58 2.69,40.216 2.879,41.679 C3.094,43.343 4.895,46.475 7.759,48.427 C7.617,47.214 7.425,46.013 7.202,44.839" id="Fill-182" fill="#F8CA87"></path>
                <path d="M20.809,15.525 L20.682,14.596 C20.659,14.436 20.633,14.282 20.593,14.071 C20.353,12.848 19.921,11.935 19.311,11.358 L19.233,11.286 L19.233,3.353 C18.815,3.322 18.396,3.294 17.963,3.294 L17.047,3.294 C16.637,3.294 16.242,3.322 15.847,3.349 L15.847,11.284 L15.768,11.358 C15.157,11.936 14.726,12.85 14.475,14.128 C14.445,14.284 14.418,14.445 14.395,14.613 L14.27,15.53 C14.055,17.128 13.767,19.256 13.298,21.162 L13.367,21.156 C14.864,21.021 20.617,21.155 21.787,21.184 C21.315,19.281 21.025,17.134 20.809,15.525" id="Fill-183" fill="#C47D2F"></path>
                <path d="M29.793,23.367 C28.642,25.036 26.71,26.499 24.486,26.382 C22.921,26.299 21.934,24.41 21.272,22.064 L21.267,22.064 L21.235,21.936 C20.563,19.493 20.233,16.588 19.971,14.713 L19.968,14.696 C19.947,14.548 19.923,14.405 19.897,14.266 L19.886,14.21 C19.678,13.151 19.312,12.351 18.816,11.882 L18.703,11.775 L18.512,11.642 L18.512,0 L16.567,0 L16.567,11.642 L16.374,11.776 L16.263,11.882 C15.766,12.351 15.401,13.152 15.192,14.213 L15.183,14.263 C15.155,14.409 15.13,14.558 15.108,14.713 C15.089,14.848 15.07,14.99 15.05,15.136 L15.025,15.321 L14.998,15.524 C14.751,17.362 14.426,19.819 13.845,21.933 L13.813,22.064 L13.807,22.064 C13.145,24.409 12.158,26.299 10.593,26.382 C8.369,26.499 6.438,25.036 5.286,23.367 C3.982,23.685 2.727,24.054 1.528,24.47 C1.963,28.27 3.492,32.084 7.12,33.4 C11.548,35.006 14.761,35.852 17.539,38.558 C20.318,35.852 23.531,35.006 27.959,33.4 C31.587,32.084 33.116,28.27 33.551,24.47 C32.352,24.055 31.097,23.685 29.793,23.367" id="Fill-184" fill="#F3B04D"></path>
                <path d="M16.944,12.255 L16.87,12.299 L16.758,12.405 C16.381,12.762 16.076,13.454 15.891,14.399 C15.865,14.533 15.842,14.671 15.822,14.813 L15.698,15.722 C15.455,17.529 15.123,20.002 14.544,22.105 L14.381,22.748 L14.355,22.749 C13.471,25.591 12.25,27.016 10.631,27.101 C10.535,27.106 10.438,27.109 10.343,27.109 C8.385,27.109 6.415,26.024 4.99,24.183 C4.082,24.416 3.187,24.677 2.318,24.963 C2.749,27.944 3.991,31.498 7.366,32.722 C7.992,32.95 8.594,33.162 9.173,33.365 C12.476,34.529 15.134,35.467 17.496,37.539 L17.496,12.255 L16.944,12.255" id="Fill-185" fill="#F8CA87"></path>
                <path d="M15.523,4.086 C7.88,4.798 3.506,10.831 2.557,16.586 C5.284,15.618 7.593,14.716 10.337,12.803 C12.974,10.966 15.146,7.806 15.523,4.086" id="Fill-186" fill="#F8CA87"></path>
                <path d="M0.749,17.997 C0.564,18.737 0.309,20.274 0.589,20.834 C1.947,19.355 8.38,15.999 13.454,14.361 C6.822,15.36 0.829,17.677 0.749,17.997" id="Fill-187" fill="#F8CA87"></path>
            </g>
        </g>
    </g>
</svg>