<?xml version="1.0" encoding="UTF-8"?>
<svg width="56px" height="37px" viewBox="0 0 56 37" version="1.1" xmlns="http://www.w3.org/2000/svg" xmlns:xlink="http://www.w3.org/1999/xlink">
    <title>Group 4</title>
    <g id="Page-1" stroke="none" stroke-width="1" fill="none" fill-rule="evenodd">
        <g id="Screen-1" transform="translate(-265.000000, -489.000000)">
            <g id="Group-4" transform="translate(265.000000, 489.000000)">
                <path d="M35.75572,12.5076077 C39.56372,22.1276077 25.07072,31.0526077 25.23272,36.8206077 C21.95272,32.5526077 4.72772001,35.9166077 0.919720006,26.2976077 C-2.88827999,16.6776077 5.69472001,9.56160772 16.25172,14.1316077 C20.33572,4.69460772 31.94872,2.88860772 35.75572,12.5076077" id="Fill-136" fill="#B0252A"></path>
                <path d="M35.75572,12.5076077 C34.98172,10.5516077 33.88072,9.07560772 32.58972,8.03160772 C32.15572,8.39560772 31.72672,8.77660772 31.31272,9.19060772 C30.08072,7.95960772 28.80472,6.94460772 27.51172,6.12460772 C23.19372,5.95260772 18.54072,8.84260772 16.25172,14.1316077 C13.29472,12.8516077 10.49372,12.4896077 8.07572001,12.8406077 C7.84672001,13.9216077 7.72272001,15.0856077 7.72272001,16.3296077 C7.72272001,25.6046077 18.73172,30.3256077 25.74772,34.6276077 C28.26872,28.9156077 39.11072,20.9816077 35.75572,12.5076077" id="Fill-137" fill="#902326"></path>
                <path d="M55.82572,12.8176077 C55.82572,25.8456077 34.71972,29.5786077 32.23672,36.4066077 C30.37472,29.8886077 8.64772001,25.8456077 8.64772001,12.8176077 C8.64772001,-0.21039228 21.99372,-4.56439228 32.23672,5.67860772 C41.39272,-3.47839228 55.82572,-0.21039228 55.82572,12.8176077" id="Fill-138" fill="#D94847"></path>
                <path d="M11.41172,14.6206077 C12.63572,7.38760772 19.65172,3.57460772 28.87272,5.13360772 C29.62172,5.26060772 30.36972,5.42260772 31.11572,5.61460772 C27.73372,2.57060772 23.93472,0.89060772 20.29672,0.89060772 C14.08272,0.89060772 9.90772001,5.66260772 9.90772001,12.7636077 C9.90772001,15.0906077 10.69772,17.1396077 11.99772,18.9806077 C11.39472,17.5606077 11.16072,16.1076077 11.41172,14.6206077" id="Fill-139" fill="#E88786"></path>
                <path d="M47.68672,1.75060772 C49.36372,3.95260772 50.42772,7.21860772 50.42772,11.4726077 C50.42772,24.4986077 31.50072,21.4986077 31.97072,34.0976077 C32.08072,34.3096077 32.17372,34.5226077 32.23672,34.7396077 C34.60772,28.3346077 54.76072,24.8336077 54.76072,12.6136077 C54.76072,6.91960772 51.76772,3.21560772 47.68672,1.75060772" id="Fill-140" fill="#B0252A"></path>
                <path d="M46.11672,1.33160772 C39.40472,0.57960772 32.31772,5.62560772 32.31772,7.74760772 C32.31772,9.14360772 32.31772,12.9826077 32.31772,17.5736077 C33.04272,8.60660772 37.71372,2.37860772 46.11672,1.33160772" id="Fill-141" fill="#E88786"></path>
            </g>
        </g>
    </g>
</svg>