<?xml version="1.0" encoding="UTF-8"?>
<svg width="64px" height="51px" viewBox="0 0 64 51" version="1.1" xmlns="http://www.w3.org/2000/svg" xmlns:xlink="http://www.w3.org/1999/xlink">
    <title>Group 2</title>
    <g id="Page-1" stroke="none" stroke-width="1" fill="none" fill-rule="evenodd">
        <g id="Screen-1" transform="translate(-263.000000, -329.000000)">
            <g id="Group-2" transform="translate(263.000000, 329.000000)">
                <path d="M15.568,27.678 C15.696,28.122 15.832,28.566 15.986,29.01 C19.768,39.924 28.151,41.617 36.736,38.642 C45.322,35.666 50.86,29.15 47.078,18.236 C46.915,17.768 46.738,17.311 46.553,16.86 C41.976,17.207 36.397,18.396 30.568,20.415 C24.614,22.479 19.402,25.061 15.568,27.678" id="Fill-122" fill="#0C2F32"></path>
                <path d="M62.553,14.349 C64.066,18.714 52.215,28.556 35.407,34.38 C18.6,40.205 3.2,39.806 1.688,35.441 C0.175,31.075 11.113,18.599 27.92,12.774 C44.728,6.95 61.04,9.983 62.553,14.349" id="Fill-123" fill="#1C4B58"></path>
                <path d="M46.401,16.406 C46.272,15.962 46.136,15.518 45.982,15.074 C42.2,4.16 33.817,2.467 25.232,5.442 C16.646,8.418 11.108,14.934 14.891,25.848 C15.053,26.316 15.23,26.773 15.415,27.224 C16.109,28.753 26.237,26.354 32.066,24.335 C38.02,22.271 46.667,17.596 46.401,16.406" id="Fill-124" fill="#406E7D"></path>
                <path d="M32.68,19.578 C33.131,20.878 32.442,22.297 31.142,22.748 C29.842,23.198 28.423,22.51 27.972,21.21 C27.522,19.91 28.211,18.491 29.511,18.04 C30.811,17.59 32.23,18.278 32.68,19.578" id="Fill-125" fill="#78C8D2"></path>
                <path d="M25.702,21.662 C26.152,22.962 25.505,24.31 24.255,24.674 C23.006,25.038 21.628,24.278 21.178,22.978 C20.727,21.678 21.375,20.33 22.624,19.966 C23.873,19.602 25.251,20.362 25.702,21.662" id="Fill-126" fill="#78C8D2"></path>
                <path d="M35.379,18.308 C35.83,19.608 37.173,20.267 38.379,19.78 C39.586,19.292 40.198,17.843 39.748,16.543 C39.297,15.243 37.954,14.584 36.748,15.072 C35.541,15.559 34.929,17.008 35.379,18.308" id="Fill-127" fill="#78C8D2"></path>
                <path d="M41.602,15.262 C41.957,16.477 42.936,17.21 43.789,16.898 C44.642,16.586 45.046,15.348 44.691,14.133 C44.337,12.917 43.357,12.185 42.504,12.497 C41.651,12.809 41.247,14.047 41.602,15.262" id="Fill-128" fill="#78C8D2"></path>
                <path d="M18.48,23.275 C18.953,24.449 18.637,25.63 17.774,25.913 C16.911,26.196 15.827,25.473 15.354,24.299 C14.881,23.125 15.197,21.944 16.06,21.661 C16.923,21.378 18.007,22.1 18.48,23.275" id="Fill-129" fill="#78C8D2"></path>
                <path d="M34.525,31.833 C17.929,37.584 3.077,38.307 1.627,35.216 L1.661,35.364 C2.934,39.037 18.052,38.624 34.859,32.799 C51.667,26.975 63.799,17.945 62.526,14.272 L62.461,14.135 C63.235,17.461 51.12,26.082 34.525,31.833" id="Fill-130" fill="#58B0BB"></path>
                <polyline id="Fill-131" fill="#E4B46F" points="5.691 9.929 4.312 5.841 0 5.691 4.088 4.312 4.238 0 5.617 4.088 9.929 4.238 5.841 5.617 5.691 9.929"></polyline>
                <polyline id="Fill-132" fill="#E4B46F" points="59.297 42.831 57.918 38.743 53.606 38.593 57.694 37.214 57.844 32.902 59.223 36.99 63.535 37.14 59.447 38.519 59.297 42.831"></polyline>
                <polyline id="Fill-133" fill="#E4B46F" points="28.661 50.981 27.502 47.547 23.88 47.421 27.314 46.262 27.439 42.64 28.598 46.074 32.22 46.2 28.786 47.359 28.661 50.981"></polyline>
                <path d="M34.792,6.037 C35.283,7.57 32.284,9.902 28.093,11.244 C23.902,12.586 20.106,12.43 19.615,10.896 C19.124,9.362 22.124,7.031 26.314,5.689 C30.505,4.347 34.301,4.503 34.792,6.037" id="Fill-134" fill="#508E9B"></path>
                <path d="M31.867,23.846 C26.475,25.714 17.461,27.901 15.368,27.101 L15.415,27.224 C16.109,28.753 26.237,26.354 32.066,24.335 C38.02,22.271 46.667,17.595 46.401,16.406 L46.318,16.144 C45.324,17.734 37.438,21.915 31.867,23.846" id="Fill-135" fill="#0C2F32"></path>
            </g>
        </g>
    </g>
</svg>